<svg xmlns="http://www.w3.org/2000/svg" width="1024" height="1024" viewBox="0 0 1024 1024"><rect x="0" y="0" width="1024" height="1024" fill="#fff4dc"/><rect x="24" y="24" width="976" height="976" fill="none" rx="10" stroke="#d4a040" stroke-width="2"/><rect x="40" y="40" width="944" height="944" fill="none" rx="6" stroke="#e2cf9e" stroke-width="1"/><rect x="88" y="88" width="848" height="848" fill="#fff4dc"/><defs><circle id="d" r="7"/></defs><g fill="#725024"><use href="#d" x="320" y="160"/><use href="#d" x="544" y="160"/><use href="#d" x="480" y="176"/><use href="#d" x="528" y="176"/><use href="#d" x="592" y="176"/><use href="#d" x="512" y="192"/><use href="#d" x="576" y="192"/><use href="#d" x="384" y="208"/><use href="#d" x="448" y="208"/><use href="#d" x="560" y="208"/><use href="#d" x="608" y="208"/><use href="#d" x="720" y="208"/><use href="#d" x="320" y="224"/><use href="#d" x="432" y="224"/><use href="#d" x="480" y="224"/><use href="#d" x="544" y="224"/><use href="#d" x="592" y="224"/><use href="#d" x="704" y="224"/><use href="#d" x="304" y="240"/><use href="#d" x="576" y="240"/><use href="#d" x="640" y="240"/><use href="#d" x="288" y="256"/><use href="#d" x="448" y="256"/><use href="#d" x="512" y="256"/><use href="#d" x="672" y="256"/><use href="#d" x="736" y="256"/><use href="#d" x="320" y="272"/><use href="#d" x="384" y="272"/><use href="#d" x="544" y="272"/><use href="#d" x="656" y="272"/><use href="#d" x="720" y="272"/><use href="#d" x="192" y="288"/><use href="#d" x="256" y="288"/><use href="#d" x="480" y="288"/><use href="#d" x="528" y="288"/><use href="#d" x="752" y="288"/><use href="#d" x="816" y="288"/><use href="#d" x="176" y="304"/><use href="#d" x="352" y="304"/><use href="#d" x="400" y="304"/><use href="#d" x="464" y="304"/><use href="#d" x="576" y="304"/><use href="#d" x="624" y="304"/><use href="#d" x="736" y="304"/><use href="#d" x="848" y="304"/><use href="#d" x="160" y="320"/><use href="#d" x="272" y="320"/><use href="#d" x="384" y="320"/><use href="#d" x="448" y="320"/><use href="#d" x="496" y="320"/><use href="#d" x="560" y="320"/><use href="#d" x="608" y="320"/><use href="#d" x="784" y="320"/><use href="#d" x="208" y="336"/><use href="#d" x="368" y="336"/><use href="#d" x="480" y="336"/><use href="#d" x="656" y="336"/><use href="#d" x="704" y="336"/><use href="#d" x="192" y="352"/><use href="#d" x="464" y="352"/><use href="#d" x="224" y="368"/><use href="#d" x="288" y="368"/><use href="#d" x="336" y="368"/><use href="#d" x="448" y="368"/><use href="#d" x="512" y="368"/><use href="#d" x="560" y="368"/><use href="#d" x="624" y="368"/><use href="#d" x="784" y="368"/><use href="#d" x="208" y="384"/><use href="#d" x="320" y="384"/><use href="#d" x="432" y="384"/><use href="#d" x="544" y="384"/><use href="#d" x="480" y="400"/><use href="#d" x="592" y="400"/><use href="#d" x="704" y="400"/><use href="#d" x="752" y="400"/><use href="#d" x="864" y="400"/><use href="#d" x="176" y="416"/><use href="#d" x="400" y="416"/><use href="#d" x="512" y="416"/><use href="#d" x="576" y="416"/><use href="#d" x="624" y="416"/><use href="#d" x="688" y="416"/><use href="#d" x="848" y="416"/><use href="#d" x="160" y="432"/><use href="#d" x="272" y="432"/><use href="#d" x="384" y="432"/><use href="#d" x="448" y="432"/><use href="#d" x="560" y="432"/><use href="#d" x="608" y="432"/><use href="#d" x="720" y="432"/><use href="#d" x="784" y="432"/><use href="#d" x="208" y="448"/><use href="#d" x="256" y="448"/><use href="#d" x="432" y="448"/><use href="#d" x="480" y="448"/><use href="#d" x="656" y="448"/><use href="#d" x="192" y="464"/><use href="#d" x="352" y="464"/><use href="#d" x="416" y="464"/><use href="#d" x="528" y="464"/><use href="#d" x="640" y="464"/><use href="#d" x="176" y="480"/><use href="#d" x="224" y="480"/><use href="#d" x="288" y="480"/><use href="#d" x="336" y="480"/><use href="#d" x="448" y="480"/><use href="#d" x="512" y="480"/><use href="#d" x="624" y="480"/><use href="#d" x="736" y="480"/><use href="#d" x="784" y="480"/><use href="#d" x="208" y="496"/><use href="#d" x="320" y="496"/><use href="#d" x="384" y="496"/><use href="#d" x="544" y="496"/><use href="#d" x="192" y="512"/><use href="#d" x="256" y="512"/><use href="#d" x="304" y="512"/><use href="#d" x="416" y="512"/><use href="#d" x="480" y="512"/><use href="#d" x="592" y="512"/><use href="#d" x="640" y="512"/><use href="#d" x="704" y="512"/><use href="#d" x="288" y="528"/><use href="#d" x="352" y="528"/><use href="#d" x="400" y="528"/><use href="#d" x="464" y="528"/><use href="#d" x="576" y="528"/><use href="#d" x="736" y="528"/><use href="#d" x="800" y="528"/><use href="#d" x="224" y="544"/><use href="#d" x="272" y="544"/><use href="#d" x="336" y="544"/><use href="#d" x="448" y="544"/><use href="#d" x="496" y="544"/><use href="#d" x="608" y="544"/><use href="#d" x="672" y="544"/><use href="#d" x="720" y="544"/><use href="#d" x="784" y="544"/><use href="#d" x="432" y="560"/><use href="#d" x="544" y="560"/><use href="#d" x="592" y="560"/><use href="#d" x="656" y="560"/><use href="#d" x="192" y="576"/><use href="#d" x="304" y="576"/><use href="#d" x="416" y="576"/><use href="#d" x="464" y="576"/><use href="#d" x="688" y="576"/><use href="#d" x="752" y="576"/><use href="#d" x="800" y="576"/><use href="#d" x="176" y="592"/><use href="#d" x="624" y="592"/><use href="#d" x="672" y="592"/><use href="#d" x="784" y="592"/><use href="#d" x="848" y="592"/><use href="#d" x="160" y="608"/><use href="#d" x="208" y="608"/><use href="#d" x="272" y="608"/><use href="#d" x="320" y="608"/><use href="#d" x="384" y="608"/><use href="#d" x="432" y="608"/><use href="#d" x="496" y="608"/><use href="#d" x="608" y="608"/><use href="#d" x="656" y="608"/><use href="#d" x="720" y="608"/><use href="#d" x="832" y="608"/><use href="#d" x="192" y="624"/><use href="#d" x="304" y="624"/><use href="#d" x="704" y="624"/><use href="#d" x="752" y="624"/><use href="#d" x="816" y="624"/><use href="#d" x="352" y="640"/><use href="#d" x="400" y="640"/><use href="#d" x="512" y="640"/><use href="#d" x="688" y="640"/><use href="#d" x="736" y="640"/><use href="#d" x="848" y="640"/><use href="#d" x="272" y="656"/><use href="#d" x="496" y="656"/><use href="#d" x="560" y="656"/><use href="#d" x="720" y="656"/><use href="#d" x="784" y="656"/><use href="#d" x="256" y="672"/><use href="#d" x="544" y="672"/><use href="#d" x="704" y="672"/><use href="#d" x="768" y="672"/><use href="#d" x="816" y="672"/><use href="#d" x="240" y="688"/><use href="#d" x="464" y="688"/><use href="#d" x="688" y="688"/><use href="#d" x="752" y="688"/><use href="#d" x="800" y="688"/><use href="#d" x="224" y="704"/><use href="#d" x="336" y="704"/><use href="#d" x="512" y="704"/><use href="#d" x="624" y="704"/><use href="#d" x="736" y="704"/><use href="#d" x="784" y="704"/><use href="#d" x="848" y="704"/><use href="#d" x="208" y="720"/><use href="#d" x="496" y="720"/><use href="#d" x="544" y="720"/><use href="#d" x="656" y="720"/><use href="#d" x="256" y="736"/><use href="#d" x="304" y="736"/><use href="#d" x="368" y="736"/><use href="#d" x="480" y="736"/><use href="#d" x="528" y="736"/><use href="#d" x="592" y="736"/><use href="#d" x="752" y="736"/><use href="#d" x="352" y="752"/><use href="#d" x="464" y="752"/><use href="#d" x="736" y="752"/><use href="#d" x="800" y="752"/><use href="#d" x="848" y="752"/><use href="#d" x="384" y="768"/><use href="#d" x="608" y="768"/><use href="#d" x="720" y="768"/><use href="#d" x="320" y="784"/><use href="#d" x="368" y="784"/><use href="#d" x="432" y="784"/><use href="#d" x="480" y="784"/><use href="#d" x="544" y="784"/><use href="#d" x="592" y="784"/><use href="#d" x="656" y="784"/><use href="#d" x="704" y="784"/><use href="#d" x="816" y="784"/><use href="#d" x="352" y="800"/><use href="#d" x="464" y="800"/><use href="#d" x="528" y="800"/><use href="#d" x="640" y="800"/><use href="#d" x="688" y="800"/><use href="#d" x="752" y="800"/><use href="#d" x="800" y="800"/><use href="#d" x="288" y="816"/><use href="#d" x="336" y="816"/><use href="#d" x="400" y="816"/><use href="#d" x="560" y="816"/><use href="#d" x="624" y="816"/><use href="#d" x="784" y="816"/><use href="#d" x="848" y="816"/><use href="#d" x="320" y="832"/><use href="#d" x="384" y="832"/><use href="#d" x="656" y="832"/><use href="#d" x="720" y="832"/><use href="#d" x="768" y="832"/><use href="#d" x="368" y="848"/><use href="#d" x="416" y="848"/><use href="#d" x="480" y="848"/><use href="#d" x="528" y="848"/><use href="#d" x="704" y="848"/><use href="#d" x="464" y="864"/><use href="#d" x="512" y="864"/><use href="#d" x="624" y="864"/><use href="#d" x="736" y="864"/><use href="#d" x="848" y="864"/></g><g fill="#4b351d"><use href="#d" x="352" y="160"/><use href="#d" x="368" y="160"/><use href="#d" x="400" y="160"/><use href="#d" x="416" y="160"/><use href="#d" x="480" y="160"/><use href="#d" x="576" y="160"/><use href="#d" x="592" y="160"/><use href="#d" x="624" y="160"/><use href="#d" x="672" y="160"/><use href="#d" x="736" y="160"/><use href="#d" x="336" y="176"/><use href="#d" x="352" y="176"/><use href="#d" x="384" y="176"/><use href="#d" x="432" y="176"/><use href="#d" x="448" y="176"/><use href="#d" x="464" y="176"/><use href="#d" x="496" y="176"/><use href="#d" x="544" y="176"/><use href="#d" x="560" y="176"/><use href="#d" x="672" y="176"/><use href="#d" x="720" y="176"/><use href="#d" x="304" y="192"/><use href="#d" x="416" y="192"/><use href="#d" x="432" y="192"/><use href="#d" x="496" y="192"/><use href="#d" x="544" y="192"/><use href="#d" x="592" y="192"/><use href="#d" x="608" y="192"/><use href="#d" x="656" y="192"/><use href="#d" x="720" y="192"/><use href="#d" x="288" y="208"/><use href="#d" x="432" y="208"/><use href="#d" x="464" y="208"/><use href="#d" x="528" y="208"/><use href="#d" x="576" y="208"/><use href="#d" x="624" y="208"/><use href="#d" x="688" y="208"/><use href="#d" x="736" y="208"/><use href="#d" x="288" y="224"/><use href="#d" x="336" y="224"/><use href="#d" x="352" y="224"/><use href="#d" x="384" y="224"/><use href="#d" x="448" y="224"/><use href="#d" x="464" y="224"/><use href="#d" x="496" y="224"/><use href="#d" x="512" y="224"/><use href="#d" x="528" y="224"/><use href="#d" x="624" y="224"/><use href="#d" x="688" y="224"/><use href="#d" x="720" y="224"/><use href="#d" x="736" y="224"/><use href="#d" x="384" y="240"/><use href="#d" x="400" y="240"/><use href="#d" x="432" y="240"/><use href="#d" x="448" y="240"/><use href="#d" x="480" y="240"/><use href="#d" x="544" y="240"/><use href="#d" x="592" y="240"/><use href="#d" x="608" y="240"/><use href="#d" x="656" y="240"/><use href="#d" x="320" y="256"/><use href="#d" x="352" y="256"/><use href="#d" x="384" y="256"/><use href="#d" x="416" y="256"/><use href="#d" x="480" y="256"/><use href="#d" x="544" y="256"/><use href="#d" x="576" y="256"/><use href="#d" x="608" y="256"/><use href="#d" x="640" y="256"/><use href="#d" x="704" y="256"/><use href="#d" x="288" y="272"/><use href="#d" x="400" y="272"/><use href="#d" x="480" y="272"/><use href="#d" x="560" y="272"/><use href="#d" x="576" y="272"/><use href="#d" x="640" y="272"/><use href="#d" x="688" y="272"/><use href="#d" x="704" y="272"/><use href="#d" x="736" y="272"/><use href="#d" x="208" y="288"/><use href="#d" x="320" y="288"/><use href="#d" x="400" y="288"/><use href="#d" x="448" y="288"/><use href="#d" x="496" y="288"/><use href="#d" x="512" y="288"/><use href="#d" x="544" y="288"/><use href="#d" x="736" y="288"/><use href="#d" x="768" y="288"/><use href="#d" x="800" y="288"/><use href="#d" x="192" y="304"/><use href="#d" x="208" y="304"/><use href="#d" x="224" y="304"/><use href="#d" x="272" y="304"/><use href="#d" x="304" y="304"/><use href="#d" x="384" y="304"/><use href="#d" x="416" y="304"/><use href="#d" x="448" y="304"/><use href="#d" x="496" y="304"/><use href="#d" x="528" y="304"/><use href="#d" x="720" y="304"/><use href="#d" x="816" y="304"/><use href="#d" x="832" y="304"/><use href="#d" x="256" y="320"/><use href="#d" x="304" y="320"/><use href="#d" x="368" y="320"/><use href="#d" x="400" y="320"/><use href="#d" x="432" y="320"/><use href="#d" x="464" y="320"/><use href="#d" x="512" y="320"/><use href="#d" x="576" y="320"/><use href="#d" x="592" y="320"/><use href="#d" x="640" y="320"/><use href="#d" x="688" y="320"/><use href="#d" x="704" y="320"/><use href="#d" x="800" y="320"/><use href="#d" x="848" y="320"/><use href="#d" x="864" y="320"/><use href="#d" x="160" y="336"/><use href="#d" x="224" y="336"/><use href="#d" x="240" y="336"/><use href="#d" x="272" y="336"/><use href="#d" x="352" y="336"/><use href="#d" x="384" y="336"/><use href="#d" x="448" y="336"/><use href="#d" x="512" y="336"/><use href="#d" x="528" y="336"/><use href="#d" x="672" y="336"/><use href="#d" x="688" y="336"/><use href="#d" x="736" y="336"/><use href="#d" x="752" y="336"/><use href="#d" x="832" y="336"/><use href="#d" x="864" y="336"/><use href="#d" x="224" y="352"/><use href="#d" x="256" y="352"/><use href="#d" x="288" y="352"/><use href="#d" x="432" y="352"/><use href="#d" x="480" y="352"/><use href="#d" x="560" y="352"/><use href="#d" x="592" y="352"/><use href="#d" x="672" y="352"/><use href="#d" x="720" y="352"/><use href="#d" x="736" y="352"/><use href="#d" x="768" y="352"/><use href="#d" x="816" y="352"/><use href="#d" x="160" y="368"/><use href="#d" x="192" y="368"/><use href="#d" x="272" y="368"/><use href="#d" x="320" y="368"/><use href="#d" x="416" y="368"/><use href="#d" x="432" y="368"/><use href="#d" x="480" y="368"/><use href="#d" x="592" y="368"/><use href="#d" x="656" y="368"/><use href="#d" x="704" y="368"/><use href="#d" x="752" y="368"/><use href="#d" x="768" y="368"/><use href="#d" x="832" y="368"/><use href="#d" x="176" y="384"/><use href="#d" x="224" y="384"/><use href="#d" x="240" y="384"/><use href="#d" x="256" y="384"/><use href="#d" x="288" y="384"/><use href="#d" x="352" y="384"/><use href="#d" x="368" y="384"/><use href="#d" x="400" y="384"/><use href="#d" x="448" y="384"/><use href="#d" x="464" y="384"/><use href="#d" x="480" y="384"/><use href="#d" x="528" y="384"/><use href="#d" x="560" y="384"/><use href="#d" x="576" y="384"/><use href="#d" x="592" y="384"/><use href="#d" x="704" y="384"/><use href="#d" x="864" y="384"/><use href="#d" x="160" y="400"/><use href="#d" x="176" y="400"/><use href="#d" x="208" y="400"/><use href="#d" x="224" y="400"/><use href="#d" x="272" y="400"/><use href="#d" x="288" y="400"/><use href="#d" x="320" y="400"/><use href="#d" x="336" y="400"/><use href="#d" x="384" y="400"/><use href="#d" x="400" y="400"/><use href="#d" x="448" y="400"/><use href="#d" x="496" y="400"/><use href="#d" x="544" y="400"/><use href="#d" x="560" y="400"/><use href="#d" x="608" y="400"/><use href="#d" x="688" y="400"/><use href="#d" x="768" y="400"/><use href="#d" x="784" y="400"/><use href="#d" x="192" y="416"/><use href="#d" x="208" y="416"/><use href="#d" x="224" y="416"/><use href="#d" x="256" y="416"/><use href="#d" x="304" y="416"/><use href="#d" x="320" y="416"/><use href="#d" x="336" y="416"/><use href="#d" x="368" y="416"/><use href="#d" x="416" y="416"/><use href="#d" x="432" y="416"/><use href="#d" x="480" y="416"/><use href="#d" x="528" y="416"/><use href="#d" x="544" y="416"/><use href="#d" x="720" y="416"/><use href="#d" x="784" y="416"/><use href="#d" x="864" y="416"/><use href="#d" x="176" y="432"/><use href="#d" x="288" y="432"/><use href="#d" x="304" y="432"/><use href="#d" x="320" y="432"/><use href="#d" x="352" y="432"/><use href="#d" x="432" y="432"/><use href="#d" x="480" y="432"/><use href="#d" x="544" y="432"/><use href="#d" x="576" y="432"/><use href="#d" x="624" y="432"/><use href="#d" x="704" y="432"/><use href="#d" x="752" y="432"/><use href="#d" x="816" y="432"/><use href="#d" x="192" y="448"/><use href="#d" x="224" y="448"/><use href="#d" x="272" y="448"/><use href="#d" x="288" y="448"/><use href="#d" x="304" y="448"/><use href="#d" x="352" y="448"/><use href="#d" x="464" y="448"/><use href="#d" x="496" y="448"/><use href="#d" x="512" y="448"/><use href="#d" x="560" y="448"/><use href="#d" x="576" y="448"/><use href="#d" x="608" y="448"/><use href="#d" x="624" y="448"/><use href="#d" x="672" y="448"/><use href="#d" x="736" y="448"/><use href="#d" x="784" y="448"/><use href="#d" x="160" y="464"/><use href="#d" x="208" y="464"/><use href="#d" x="336" y="464"/><use href="#d" x="448" y="464"/><use href="#d" x="480" y="464"/><use href="#d" x="512" y="464"/><use href="#d" x="544" y="464"/><use href="#d" x="560" y="464"/><use href="#d" x="624" y="464"/><use href="#d" x="656" y="464"/><use href="#d" x="672" y="464"/><use href="#d" x="704" y="464"/><use href="#d" x="736" y="464"/><use href="#d" x="768" y="464"/><use href="#d" x="784" y="464"/><use href="#d" x="832" y="464"/><use href="#d" x="848" y="464"/><use href="#d" x="192" y="480"/><use href="#d" x="208" y="480"/><use href="#d" x="240" y="480"/><use href="#d" x="256" y="480"/><use href="#d" x="272" y="480"/><use href="#d" x="368" y="480"/><use href="#d" x="384" y="480"/><use href="#d" x="416" y="480"/><use href="#d" x="432" y="480"/><use href="#d" x="480" y="480"/><use href="#d" x="496" y="480"/><use href="#d" x="528" y="480"/><use href="#d" x="544" y="480"/><use href="#d" x="608" y="480"/><use href="#d" x="656" y="480"/><use href="#d" x="688" y="480"/><use href="#d" x="752" y="480"/><use href="#d" x="768" y="480"/><use href="#d" x="800" y="480"/><use href="#d" x="176" y="496"/><use href="#d" x="224" y="496"/><use href="#d" x="288" y="496"/><use href="#d" x="352" y="496"/><use href="#d" x="368" y="496"/><use href="#d" x="416" y="496"/><use href="#d" x="448" y="496"/><use href="#d" x="480" y="496"/><use href="#d" x="640" y="496"/><use href="#d" x="736" y="496"/><use href="#d" x="800" y="496"/><use href="#d" x="816" y="496"/><use href="#d" x="848" y="496"/><use href="#d" x="864" y="496"/><use href="#d" x="160" y="512"/><use href="#d" x="224" y="512"/><use href="#d" x="288" y="512"/><use href="#d" x="320" y="512"/><use href="#d" x="336" y="512"/><use href="#d" x="352" y="512"/><use href="#d" x="432" y="512"/><use href="#d" x="448" y="512"/><use href="#d" x="464" y="512"/><use href="#d" x="512" y="512"/><use href="#d" x="544" y="512"/><use href="#d" x="560" y="512"/><use href="#d" x="608" y="512"/><use href="#d" x="624" y="512"/><use href="#d" x="736" y="512"/><use href="#d" x="768" y="512"/><use href="#d" x="800" y="512"/><use href="#d" x="832" y="512"/><use href="#d" x="192" y="528"/><use href="#d" x="224" y="528"/><use href="#d" x="320" y="528"/><use href="#d" x="368" y="528"/><use href="#d" x="384" y="528"/><use href="#d" x="448" y="528"/><use href="#d" x="480" y="528"/><use href="#d" x="544" y="528"/><use href="#d" x="608" y="528"/><use href="#d" x="656" y="528"/><use href="#d" x="720" y="528"/><use href="#d" x="816" y="528"/><use href="#d" x="176" y="544"/><use href="#d" x="240" y="544"/><use href="#d" x="256" y="544"/><use href="#d" x="288" y="544"/><use href="#d" x="304" y="544"/><use href="#d" x="320" y="544"/><use href="#d" x="368" y="544"/><use href="#d" x="400" y="544"/><use href="#d" x="432" y="544"/><use href="#d" x="480" y="544"/><use href="#d" x="512" y="544"/><use href="#d" x="528" y="544"/><use href="#d" x="544" y="544"/><use href="#d" x="576" y="544"/><use href="#d" x="624" y="544"/><use href="#d" x="640" y="544"/><use href="#d" x="656" y="544"/><use href="#d" x="688" y="544"/><use href="#d" x="736" y="544"/><use href="#d" x="752" y="544"/><use href="#d" x="768" y="544"/><use href="#d" x="800" y="544"/><use href="#d" x="848" y="544"/><use href="#d" x="176" y="560"/><use href="#d" x="240" y="560"/><use href="#d" x="272" y="560"/><use href="#d" x="304" y="560"/><use href="#d" x="352" y="560"/><use href="#d" x="416" y="560"/><use href="#d" x="448" y="560"/><use href="#d" x="512" y="560"/><use href="#d" x="528" y="560"/><use href="#d" x="576" y="560"/><use href="#d" x="608" y="560"/><use href="#d" x="688" y="560"/><use href="#d" x="720" y="560"/><use href="#d" x="736" y="560"/><use href="#d" x="784" y="560"/><use href="#d" x="832" y="560"/><use href="#d" x="160" y="576"/><use href="#d" x="176" y="576"/><use href="#d" x="208" y="576"/><use href="#d" x="224" y="576"/><use href="#d" x="256" y="576"/><use href="#d" x="272" y="576"/><use href="#d" x="288" y="576"/><use href="#d" x="336" y="576"/><use href="#d" x="368" y="576"/><use href="#d" x="384" y="576"/><use href="#d" x="432" y="576"/><use href="#d" x="448" y="576"/><use href="#d" x="480" y="576"/><use href="#d" x="512" y="576"/><use href="#d" x="544" y="576"/><use href="#d" x="560" y="576"/><use href="#d" x="608" y="576"/><use href="#d" x="624" y="576"/><use href="#d" x="672" y="576"/><use href="#d" x="720" y="576"/><use href="#d" x="768" y="576"/><use href="#d" x="784" y="576"/><use href="#d" x="832" y="576"/><use href="#d" x="848" y="576"/><use href="#d" x="272" y="592"/><use href="#d" x="304" y="592"/><use href="#d" x="352" y="592"/><use href="#d" x="368" y="592"/><use href="#d" x="384" y="592"/><use href="#d" x="432" y="592"/><use href="#d" x="464" y="592"/><use href="#d" x="496" y="592"/><use href="#d" x="544" y="592"/><use href="#d" x="592" y="592"/><use href="#d" x="608" y="592"/><use href="#d" x="656" y="592"/><use href="#d" x="688" y="592"/><use href="#d" x="704" y="592"/><use href="#d" x="752" y="592"/><use href="#d" x="768" y="592"/><use href="#d" x="832" y="592"/><use href="#d" x="864" y="592"/><use href="#d" x="224" y="608"/><use href="#d" x="256" y="608"/><use href="#d" x="368" y="608"/><use href="#d" x="480" y="608"/><use href="#d" x="512" y="608"/><use href="#d" x="576" y="608"/><use href="#d" x="592" y="608"/><use href="#d" x="624" y="608"/><use href="#d" x="672" y="608"/><use href="#d" x="736" y="608"/><use href="#d" x="784" y="608"/><use href="#d" x="800" y="608"/><use href="#d" x="816" y="608"/><use href="#d" x="848" y="608"/><use href="#d" x="160" y="624"/><use href="#d" x="240" y="624"/><use href="#d" x="272" y="624"/><use href="#d" x="320" y="624"/><use href="#d" x="336" y="624"/><use href="#d" x="352" y="624"/><use href="#d" x="432" y="624"/><use href="#d" x="464" y="624"/><use href="#d" x="496" y="624"/><use href="#d" x="512" y="624"/><use href="#d" x="544" y="624"/><use href="#d" x="576" y="624"/><use href="#d" x="608" y="624"/><use href="#d" x="656" y="624"/><use href="#d" x="672" y="624"/><use href="#d" x="768" y="624"/><use href="#d" x="784" y="624"/><use href="#d" x="832" y="624"/><use href="#d" x="848" y="624"/><use href="#d" x="160" y="640"/><use href="#d" x="224" y="640"/><use href="#d" x="256" y="640"/><use href="#d" x="272" y="640"/><use href="#d" x="304" y="640"/><use href="#d" x="336" y="640"/><use href="#d" x="368" y="640"/><use href="#d" x="384" y="640"/><use href="#d" x="416" y="640"/><use href="#d" x="432" y="640"/><use href="#d" x="448" y="640"/><use href="#d" x="592" y="640"/><use href="#d" x="608" y="640"/><use href="#d" x="640" y="640"/><use href="#d" x="672" y="640"/><use href="#d" x="720" y="640"/><use href="#d" x="192" y="656"/><use href="#d" x="208" y="656"/><use href="#d" x="240" y="656"/><use href="#d" x="288" y="656"/><use href="#d" x="432" y="656"/><use href="#d" x="512" y="656"/><use href="#d" x="544" y="656"/><use href="#d" x="576" y="656"/><use href="#d" x="592" y="656"/><use href="#d" x="640" y="656"/><use href="#d" x="656" y="656"/><use href="#d" x="752" y="656"/><use href="#d" x="768" y="656"/><use href="#d" x="800" y="656"/><use href="#d" x="816" y="656"/><use href="#d" x="848" y="656"/><use href="#d" x="864" y="656"/><use href="#d" x="176" y="672"/><use href="#d" x="240" y="672"/><use href="#d" x="272" y="672"/><use href="#d" x="288" y="672"/><use href="#d" x="336" y="672"/><use href="#d" x="352" y="672"/><use href="#d" x="384" y="672"/><use href="#d" x="416" y="672"/><use href="#d" x="448" y="672"/><use href="#d" x="512" y="672"/><use href="#d" x="560" y="672"/><use href="#d" x="608" y="672"/><use href="#d" x="640" y="672"/><use href="#d" x="720" y="672"/><use href="#d" x="736" y="672"/><use href="#d" x="752" y="672"/><use href="#d" x="800" y="672"/><use href="#d" x="832" y="672"/><use href="#d" x="848" y="672"/><use href="#d" x="272" y="688"/><use href="#d" x="320" y="688"/><use href="#d" x="336" y="688"/><use href="#d" x="368" y="688"/><use href="#d" x="400" y="688"/><use href="#d" x="432" y="688"/><use href="#d" x="480" y="688"/><use href="#d" x="496" y="688"/><use href="#d" x="512" y="688"/><use href="#d" x="592" y="688"/><use href="#d" x="624" y="688"/><use href="#d" x="704" y="688"/><use href="#d" x="736" y="688"/><use href="#d" x="784" y="688"/><use href="#d" x="256" y="704"/><use href="#d" x="272" y="704"/><use href="#d" x="304" y="704"/><use href="#d" x="320" y="704"/><use href="#d" x="416" y="704"/><use href="#d" x="432" y="704"/><use href="#d" x="480" y="704"/><use href="#d" x="496" y="704"/><use href="#d" x="528" y="704"/><use href="#d" x="576" y="704"/><use href="#d" x="608" y="704"/><use href="#d" x="688" y="704"/><use href="#d" x="704" y="704"/><use href="#d" x="720" y="704"/><use href="#d" x="800" y="704"/><use href="#d" x="816" y="704"/><use href="#d" x="832" y="704"/><use href="#d" x="176" y="720"/><use href="#d" x="192" y="720"/><use href="#d" x="224" y="720"/><use href="#d" x="288" y="720"/><use href="#d" x="336" y="720"/><use href="#d" x="352" y="720"/><use href="#d" x="416" y="720"/><use href="#d" x="448" y="720"/><use href="#d" x="464" y="720"/><use href="#d" x="512" y="720"/><use href="#d" x="528" y="720"/><use href="#d" x="560" y="720"/><use href="#d" x="576" y="720"/><use href="#d" x="624" y="720"/><use href="#d" x="640" y="720"/><use href="#d" x="704" y="720"/><use href="#d" x="736" y="720"/><use href="#d" x="752" y="720"/><use href="#d" x="784" y="720"/><use href="#d" x="800" y="720"/><use href="#d" x="816" y="720"/><use href="#d" x="848" y="720"/><use href="#d" x="864" y="720"/><use href="#d" x="160" y="736"/><use href="#d" x="208" y="736"/><use href="#d" x="224" y="736"/><use href="#d" x="320" y="736"/><use href="#d" x="336" y="736"/><use href="#d" x="400" y="736"/><use href="#d" x="432" y="736"/><use href="#d" x="496" y="736"/><use href="#d" x="512" y="736"/><use href="#d" x="544" y="736"/><use href="#d" x="560" y="736"/><use href="#d" x="608" y="736"/><use href="#d" x="624" y="736"/><use href="#d" x="656" y="736"/><use href="#d" x="672" y="736"/><use href="#d" x="736" y="736"/><use href="#d" x="768" y="736"/><use href="#d" x="784" y="736"/><use href="#d" x="800" y="736"/><use href="#d" x="832" y="736"/><use href="#d" x="432" y="752"/><use href="#d" x="448" y="752"/><use href="#d" x="480" y="752"/><use href="#d" x="544" y="752"/><use href="#d" x="608" y="752"/><use href="#d" x="640" y="752"/><use href="#d" x="672" y="752"/><use href="#d" x="720" y="752"/><use href="#d" x="304" y="768"/><use href="#d" x="320" y="768"/><use href="#d" x="352" y="768"/><use href="#d" x="368" y="768"/><use href="#d" x="416" y="768"/><use href="#d" x="464" y="768"/><use href="#d" x="480" y="768"/><use href="#d" x="512" y="768"/><use href="#d" x="544" y="768"/><use href="#d" x="640" y="768"/><use href="#d" x="704" y="768"/><use href="#d" x="736" y="768"/><use href="#d" x="768" y="768"/><use href="#d" x="800" y="768"/><use href="#d" x="848" y="768"/><use href="#d" x="864" y="768"/><use href="#d" x="400" y="784"/><use href="#d" x="560" y="784"/><use href="#d" x="624" y="784"/><use href="#d" x="640" y="784"/><use href="#d" x="672" y="784"/><use href="#d" x="720" y="784"/><use href="#d" x="736" y="784"/><use href="#d" x="800" y="784"/><use href="#d" x="832" y="784"/><use href="#d" x="848" y="784"/><use href="#d" x="384" y="800"/><use href="#d" x="432" y="800"/><use href="#d" x="448" y="800"/><use href="#d" x="480" y="800"/><use href="#d" x="496" y="800"/><use href="#d" x="512" y="800"/><use href="#d" x="544" y="800"/><use href="#d" x="608" y="800"/><use href="#d" x="624" y="800"/><use href="#d" x="672" y="800"/><use href="#d" x="720" y="800"/><use href="#d" x="736" y="800"/><use href="#d" x="768" y="800"/><use href="#d" x="784" y="800"/><use href="#d" x="832" y="800"/><use href="#d" x="848" y="800"/><use href="#d" x="320" y="816"/><use href="#d" x="352" y="816"/><use href="#d" x="432" y="816"/><use href="#d" x="464" y="816"/><use href="#d" x="496" y="816"/><use href="#d" x="528" y="816"/><use href="#d" x="544" y="816"/><use href="#d" x="576" y="816"/><use href="#d" x="608" y="816"/><use href="#d" x="640" y="816"/><use href="#d" x="688" y="816"/><use href="#d" x="704" y="816"/><use href="#d" x="768" y="816"/><use href="#d" x="800" y="816"/><use href="#d" x="864" y="816"/><use href="#d" x="288" y="832"/><use href="#d" x="304" y="832"/><use href="#d" x="336" y="832"/><use href="#d" x="352" y="832"/><use href="#d" x="400" y="832"/><use href="#d" x="448" y="832"/><use href="#d" x="464" y="832"/><use href="#d" x="512" y="832"/><use href="#d" x="528" y="832"/><use href="#d" x="560" y="832"/><use href="#d" x="576" y="832"/><use href="#d" x="592" y="832"/><use href="#d" x="624" y="832"/><use href="#d" x="640" y="832"/><use href="#d" x="672" y="832"/><use href="#d" x="688" y="832"/><use href="#d" x="704" y="832"/><use href="#d" x="752" y="832"/><use href="#d" x="784" y="832"/><use href="#d" x="848" y="832"/><use href="#d" x="320" y="848"/><use href="#d" x="400" y="848"/><use href="#d" x="464" y="848"/><use href="#d" x="512" y="848"/><use href="#d" x="560" y="848"/><use href="#d" x="576" y="848"/><use href="#d" x="672" y="848"/><use href="#d" x="720" y="848"/><use href="#d" x="736" y="848"/><use href="#d" x="800" y="848"/><use href="#d" x="832" y="848"/><use href="#d" x="848" y="848"/><use href="#d" x="320" y="864"/><use href="#d" x="432" y="864"/><use href="#d" x="448" y="864"/><use href="#d" x="480" y="864"/><use href="#d" x="528" y="864"/><use href="#d" x="560" y="864"/><use href="#d" x="592" y="864"/><use href="#d" x="608" y="864"/><use href="#d" x="640" y="864"/><use href="#d" x="656" y="864"/><use href="#d" x="672" y="864"/><use href="#d" x="704" y="864"/><use href="#d" x="720" y="864"/><use href="#d" x="816" y="864"/><use href="#d" x="832" y="864"/></g><rect x="148.8" y="148.8" width="118.4" height="118.4" fill="none" rx="23.2" stroke="#d4a040" stroke-width="2"/><rect x="152" y="152" width="112" height="112" fill="#241609" rx="22.4"/><rect x="168" y="168" width="80" height="80" fill="#fff4dc" rx="14.4"/><rect x="184" y="184" width="48" height="48" fill="#241609" rx="8"/><rect x="756.8" y="148.8" width="118.4" height="118.4" fill="none" rx="23.2" stroke="#d4a040" stroke-width="2"/><rect x="760" y="152" width="112" height="112" fill="#241609" rx="22.4"/><rect x="776" y="168" width="80" height="80" fill="#fff4dc" rx="14.4"/><rect x="792" y="184" width="48" height="48" fill="#241609" rx="8"/><rect x="148.8" y="756.8" width="118.4" height="118.4" fill="none" rx="23.2" stroke="#d4a040" stroke-width="2"/><rect x="152" y="760" width="112" height="112" fill="#241609" rx="22.4"/><rect x="168" y="776" width="80" height="80" fill="#fff4dc" rx="14.4"/><rect x="184" y="792" width="48" height="48" fill="#241609" rx="8"/></svg>